<svg width="17" height="19" viewBox="0 0 17 19" fill="none" xmlns="http://www.w3.org/2000/svg">
<path d="M10.5 14.1666V15C10.5 16.3807 9.38075 17.5 8.00004 17.5C6.61933 17.5 5.50004 16.3807 5.50004 15V14.1667M10.5 14.1666L5.50004 14.1667M10.5 14.1666H13.8334C14.2936 14.1666 14.6667 13.7935 14.6667 13.3333V12.845C14.6667 12.624 14.5788 12.4122 14.4226 12.2558L13.9969 11.8302C13.8922 11.7254 13.8334 11.5833 13.8334 11.4351V8.33329C13.8334 8.18627 13.8281 8.04041 13.8171 7.89671M5.50004 14.1667L2.16671 14.1667C1.70647 14.1667 1.33337 13.7934 1.33337 13.3331V12.845C1.33337 12.624 1.42124 12.4124 1.57751 12.2561L2.00313 11.8298C2.10787 11.7251 2.16671 11.5835 2.16671 11.4353V8.33328C2.16671 5.11163 4.77837 2.49996 8.00004 2.49996C8.59305 2.49996 9.16538 2.58845 9.70457 2.75293M13.8171 7.89671C14.8224 7.32271 15.5 6.24047 15.5 4.99996C15.5 3.15901 14.0077 1.66663 12.1667 1.66663C11.1915 1.66663 10.3141 2.0854 9.70457 2.75293M13.8171 7.89671C13.3305 8.17453 12.7671 8.33329 12.1667 8.33329C10.3258 8.33329 8.83337 6.84091 8.83337 4.99996C8.83337 4.13421 9.16343 3.34555 9.70457 2.75293M13.8171 7.89671C13.8171 7.8967 13.8171 7.89671 13.8171 7.89671ZM9.70457 2.75293C9.70496 2.75305 9.70535 2.75317 9.70574 2.75329" stroke="#DA291C" stroke-width="2" stroke-linecap="round" stroke-linejoin="round"/>
</svg>
