<svg version="1.1" xmlns="http://www.w3.org/2000/svg" xmlns:xlink="http://www.w3.org/1999/xlink" width="20" height="20" viewBox="0,0,256,256"><g fill="none" fill-rule="nonzero" stroke="#ffffff" stroke-width="2" stroke-linecap="round" stroke-linejoin="round" stroke-miterlimit="10" stroke-dasharray="" stroke-dashoffset="0" font-family="none" font-weight="none" font-size="none" text-anchor="none" style="mix-blend-mode: normal"><g transform="translate(-0.0032,0) scale(12.8,12.8)"><path d="M7.50246,2.25722c-0.30373,-0.75932 -1.03914,-1.25722 -1.85695,-1.25722h-2.75077c-1.04644,0 -1.89474,0.8481 -1.89474,1.89453c0,8.89467 7.21078,16.10547 16.1055,16.10547c1.0464,0 1.8945,-0.8484 1.8945,-1.8948l0.0005,-2.7512c0,-0.8179 -0.4978,-1.5531 -1.2571,-1.8569l-2.6365,-1.0542c-0.682,-0.2728 -1.4586,-0.15 -2.023,0.3203l-0.6804,0.5675c-0.7946,0.6622 -1.9639,0.6095 -2.6953,-0.1219l-1.91598,-1.9177c-0.73143,-0.73148 -0.78549,-1.89976 -0.12327,-2.69442l0.56738,-0.68038c0.47028,-0.56435 0.59416,-1.34114 0.32133,-2.02321z"></path></g></g></svg>