<svg width="17" height="17" viewBox="0 0 17 17" fill="none" xmlns="http://www.w3.org/2000/svg">
<path d="M2.125 8.5H5.66667M2.125 8.5C2.125 12.0208 4.97918 14.875 8.5 14.875M2.125 8.5C2.125 4.97918 4.97918 2.125 8.5 2.125M5.66667 8.5H11.3333M5.66667 8.5C5.66667 12.0208 6.93519 14.875 8.5 14.875M5.66667 8.5C5.66667 4.97918 6.93519 2.125 8.5 2.125M11.3333 8.5H14.875M11.3333 8.5C11.3333 4.97918 10.0648 2.125 8.5 2.125M11.3333 8.5C11.3333 12.0208 10.0648 14.875 8.5 14.875M14.875 8.5C14.875 4.97918 12.0208 2.125 8.5 2.125M14.875 8.5C14.875 12.0208 12.0208 14.875 8.5 14.875" stroke="#003057" stroke-width="1.6" stroke-linecap="round" stroke-linejoin="round"/>
</svg>
