<svg width="13" height="15" viewBox="0 0 13 15" fill="none" xmlns="http://www.w3.org/2000/svg">
<path d="M1.54175 6.02869C1.54175 9.46539 4.54825 12.3074 5.87901 13.397C6.06946 13.553 6.16583 13.6319 6.30792 13.6719C6.41856 13.703 6.5814 13.703 6.69204 13.6719C6.83439 13.6318 6.93009 13.5537 7.12126 13.3971C8.45201 12.3075 11.4584 9.46571 11.4584 6.029C11.4584 4.72842 10.936 3.48095 10.0061 2.5613C9.07626 1.64165 7.81517 1.125 6.50014 1.125C5.18511 1.125 3.92388 1.64173 2.99401 2.56138C2.06414 3.48103 1.54175 4.72811 1.54175 6.02869Z" stroke="#003057" stroke-width="1.6" stroke-linecap="round" stroke-linejoin="round"/>
<path d="M5.08341 5.375C5.08341 6.1574 5.71768 6.79167 6.50008 6.79167C7.28248 6.79167 7.91675 6.1574 7.91675 5.375C7.91675 4.5926 7.28248 3.95833 6.50008 3.95833C5.71768 3.95833 5.08341 4.5926 5.08341 5.375Z" stroke="#003057" stroke-width="1.6" stroke-linecap="round" stroke-linejoin="round"/>
</svg>
