<?xml version="1.0" encoding="utf-8"?>
<!-- Generator: Adobe Illustrator 27.9.0, SVG Export Plug-In . SVG Version: 6.00 Build 0)  -->
<svg version="1.1" id="Layer_1" xmlns="http://www.w3.org/2000/svg" xmlns:xlink="http://www.w3.org/1999/xlink" x="0px" y="0px"
	 width="20px" height="20px" viewBox="0 0 20 20" style="enable-background:new 0 0 20 20;" xml:space="preserve">
<style type="text/css">
	.st0{fill:none;stroke:#FFFFFF;stroke-width:2;stroke-linecap:round;stroke-linejoin:round;}
</style>
<path class="st0" d="M6.1,13.9C5.6,13.3,4.8,13,4,13c-1.7,0-3,1.3-3,3s1.3,3,3,3s3-1.3,3-3C7,15.2,6.7,14.4,6.1,13.9z M6.1,13.9
	l7.8-7.8 M13.9,6.1C14.4,6.7,15.2,7,16,7c1.7,0,3-1.3,3-3s-1.3-3-3-3s-3,1.3-3,3C13,4.8,13.3,5.6,13.9,6.1z M13.9,6.1L13.9,6.1"/>
</svg>
