<svg width="22" height="22" viewBox="0 0 22 22" fill="none" xmlns="http://www.w3.org/2000/svg">
<path d="M10.2348 1.37392C9.86722 1.52616 9.53773 1.85565 8.8788 2.51457C8.22003 3.17335 7.8904 3.50298 7.73818 3.87047C7.53519 4.36053 7.53519 4.91121 7.73818 5.40126C7.89042 5.76881 8.21989 6.09828 8.87883 6.75722C9.5374 7.41578 9.86729 7.74568 10.2347 7.89788C10.7248 8.10086 11.2755 8.10086 11.7655 7.89787C12.1331 7.74563 12.4625 7.41616 13.1215 6.75722C13.7804 6.09828 14.1089 5.76881 14.2612 5.40126C14.4641 4.91121 14.4641 4.36053 14.2612 3.87047C14.1089 3.50293 13.7804 3.17351 13.1215 2.51457C12.4625 1.85564 12.1331 1.52616 11.7655 1.37392C11.2755 1.17093 10.7248 1.17093 10.2348 1.37392Z" stroke="#DA291C" stroke-width="2" stroke-linecap="round" stroke-linejoin="round"/>
<path d="M3.8705 7.73769C3.50296 7.88993 3.17348 8.21941 2.51455 8.87834C1.85579 9.5371 1.52614 9.86675 1.37392 10.2342C1.17093 10.7243 1.17093 11.275 1.37392 11.765C1.52616 12.1326 1.85564 12.4621 2.51457 13.121C3.17314 13.7796 3.50303 14.1094 3.87047 14.2616C4.36053 14.4646 4.91121 14.4646 5.40126 14.2616C5.76881 14.1094 6.09828 13.7799 6.75722 13.121C7.41616 12.4621 7.74466 12.1326 7.8969 11.765C8.09989 11.275 8.09989 10.7243 7.8969 10.2342C7.74466 9.8667 7.41616 9.53728 6.75722 8.87834C6.09828 8.2194 5.76881 7.88993 5.40126 7.73769C4.91121 7.5347 4.36056 7.5347 3.8705 7.73769Z" stroke="#DA291C" stroke-width="2" stroke-linecap="round" stroke-linejoin="round"/>
<path d="M15.2431 8.87834C14.5843 9.53711 14.2547 9.86675 14.1024 10.2342C13.8994 10.7243 13.8994 11.275 14.1024 11.765C14.2547 12.1326 14.5842 12.462 15.2431 13.121C15.9016 13.7795 16.2316 14.1094 16.599 14.2616C17.089 14.4646 17.6397 14.4646 18.1298 14.2616C18.4973 14.1094 18.8268 13.7799 19.4857 13.121C20.1447 12.4621 20.4732 12.1326 20.6254 11.765C20.8284 11.275 20.8284 10.7243 20.6254 10.2342C20.4732 9.8667 20.1447 9.53727 19.4857 8.87834C18.8268 8.21941 18.4973 7.88993 18.1298 7.73769C17.6397 7.5347 17.0891 7.5347 16.599 7.73769C16.2315 7.88993 15.902 8.21941 15.2431 8.87834Z" stroke="#DA291C" stroke-width="2" stroke-linecap="round" stroke-linejoin="round"/>
<path d="M10.2348 14.1019C9.86722 14.2542 9.53774 14.5837 8.8788 15.2426C8.22004 15.9014 7.8904 16.231 7.73818 16.5985C7.53519 17.0886 7.53519 17.6392 7.73818 18.1293C7.89042 18.4968 8.21989 18.8263 8.87883 19.4852C9.53739 20.1438 9.86729 20.4737 10.2347 20.6259C10.7248 20.8289 11.2755 20.8289 11.7655 20.6259C12.1331 20.4737 12.4625 20.1442 13.1215 19.4852C13.7804 18.8263 14.1089 18.4968 14.2612 18.1293C14.4641 17.6392 14.4641 17.0886 14.2612 16.5985C14.1089 16.231 13.7804 15.9015 13.1215 15.2426C12.4625 14.5837 12.1331 14.2542 11.7655 14.1019C11.2755 13.899 10.7248 13.899 10.2348 14.1019Z" stroke="#DA291C" stroke-width="2" stroke-linecap="round" stroke-linejoin="round"/>
</svg>
