<?xml version="1.0" encoding="utf-8"?>
<!-- Generator: Adobe Illustrator 27.9.0, SVG Export Plug-In . SVG Version: 6.00 Build 0)  -->
<svg version="1.1" id="Layer_1" xmlns="http://www.w3.org/2000/svg" xmlns:xlink="http://www.w3.org/1999/xlink" x="0px" y="0px"
	 width="22px" height="21px" viewBox="0 0 22 21" style="enable-background:new 0 0 22 21;" xml:space="preserve">
<style type="text/css">
	.st0{fill:#FFFFFF;stroke:#FFFFFF;stroke-width:2;stroke-linecap:round;stroke-linejoin:round;}
</style>
<path class="st0" d="M14,16v1c0,1.7-1.3,3-3,3c-1.7,0-3-1.3-3-3v-1 M14,16H8 M14,16h3.6c0.4,0,0.6,0,0.7-0.1
	c0.3-0.1,0.5-0.3,0.6-0.6C19,15.2,19,15,19,14.6c0-0.2,0-0.3,0-0.3c0-0.2-0.1-0.3-0.2-0.4c0-0.1-0.1-0.1-0.2-0.2l-0.4-0.4
	c-0.1-0.1-0.2-0.3-0.2-0.5V9c0-3.9-3.1-7-7-7C7.1,2,4,5.1,4,9v3.7c0,0.2-0.1,0.3-0.2,0.5l-0.4,0.4c-0.1,0.1-0.2,0.2-0.2,0.2
	C3.1,14,3,14.1,3,14.3c0,0.1,0,0.2,0,0.3c0,0.4,0,0.6,0.1,0.7c0.1,0.3,0.3,0.5,0.6,0.6C3.8,16,4,16,4.4,16H8 M17,1
	c1.4,1,2.5,2.4,3.2,4 M5,1c-1.4,1-2.5,2.4-3.2,4"/>
</svg>
