<svg width="17" height="17" viewBox="0 0 17 17" fill="none" xmlns="http://www.w3.org/2000/svg">
<path d="M6.73091 3.01553C6.51577 2.47768 5.99485 2.125 5.41557 2.125H3.46711C2.72588 2.125 2.125 2.72574 2.125 3.46696C2.125 9.76737 7.23263 14.875 13.533 14.875C14.2743 14.875 14.875 14.2741 14.875 13.5328L14.8753 11.5841C14.8753 11.0048 14.5227 10.4839 13.9849 10.2688L12.1174 9.52208C11.6343 9.32883 11.0842 9.4158 10.6845 9.74892L10.2025 10.1509C9.63961 10.62 8.81141 10.5827 8.29331 10.0646L6.93616 8.70617C6.41806 8.18807 6.37977 7.36053 6.84884 6.79765L7.25073 6.31571C7.58385 5.91597 7.6716 5.36574 7.47834 4.88261L6.73091 3.01553Z" stroke="#003057" stroke-width="1.6" stroke-linecap="round" stroke-linejoin="round"/>
</svg>
