<svg width="17" height="14" viewBox="0 0 17 14" fill="none" xmlns="http://www.w3.org/2000/svg">
<path d="M1.41675 13.1667H2.83341M2.83341 13.1667H9.91675M2.83341 13.1667V3.39181C2.83341 2.5984 2.83341 2.2014 2.98782 1.89836C3.12364 1.63179 3.34021 1.41523 3.60677 1.27941C3.90981 1.125 4.30681 1.125 5.10022 1.125H7.65022C8.44363 1.125 8.83978 1.125 9.14282 1.27941C9.40938 1.41523 9.62667 1.63179 9.76249 1.89836C9.91675 2.2011 9.91675 2.59762 9.91675 3.38948V7.5M9.91675 13.1667H14.1667M9.91675 13.1667V7.5M14.1667 13.1667H15.5834M14.1667 13.1667V7.5C14.1667 6.83992 14.1667 6.51004 14.0588 6.2497C13.9151 5.90257 13.6395 5.62662 13.2924 5.48284C13.0321 5.375 12.7016 5.375 12.0416 5.375C11.3815 5.375 11.0514 5.375 10.7911 5.48284C10.444 5.62662 10.1684 5.90257 10.0246 6.2497C9.91675 6.51004 9.91675 6.83992 9.91675 7.5M4.95841 6.08333H7.79175M4.95841 3.95833H7.79175" stroke="#003057" stroke-width="1.6" stroke-linecap="round" stroke-linejoin="round"/>
</svg>
