<svg width="31" height="31" viewBox="0 0 31 31" fill="none" xmlns="http://www.w3.org/2000/svg">
<path d="M27.4583 27.4583L22.3333 22.3333M12.0836 29.1666H7.29466C5.38489 29.1666 4.42856 29.1666 3.6984 28.7946C3.05552 28.467 2.53321 27.9438 2.20565 27.3009C1.83325 26.57 1.83325 25.6138 1.83325 23.7003V7.30025C1.83325 5.38674 1.83325 4.42927 2.20565 3.6984C2.53321 3.05552 3.05552 2.53321 3.6984 2.20565C4.42927 1.83325 5.38674 1.83325 7.30025 1.83325H23.7003C25.6138 1.83325 26.5692 1.83325 27.3 2.20565C27.9429 2.53321 28.467 3.05552 28.7946 3.6984C29.1666 4.42855 29.1666 5.38487 29.1666 7.29464V12.0836M18.0624 24.0416C14.7602 24.0416 12.0833 21.3646 12.0833 18.0624C12.0833 14.7602 14.7602 12.0833 18.0624 12.0833C21.3646 12.0833 24.0416 14.7602 24.0416 18.0624C24.0416 21.3646 21.3646 24.0416 18.0624 24.0416Z" stroke="#DA291C" stroke-width="3.41667" stroke-linecap="round" stroke-linejoin="round"/>
</svg>
