<svg width="34" height="34" viewBox="0 0 34 34" fill="none" xmlns="http://www.w3.org/2000/svg">
<g clip-path="url(#clip0_589_3383)">
<rect x="1" y="1" width="32" height="32" rx="3" fill="#1E1E1E"/>
<rect x="1" y="1" width="32" height="32" fill="#003057"/>
<path d="M7 25H9M9 25H19M9 25V11.2002C9 10.0801 9 9.51962 9.21799 9.0918C9.40973 8.71547 9.71547 8.40973 10.0918 8.21799C10.5196 8 11.0801 8 12.2002 8H15.8002C16.9203 8 17.4796 8 17.9074 8.21799C18.2837 8.40973 18.5905 8.71547 18.7822 9.0918C19 9.5192 19 10.079 19 11.1969V17M19 25H25M19 25V17M25 25H27M25 25V17C25 16.0681 24.9999 15.6024 24.8477 15.2349C24.6447 14.7448 24.2557 14.3552 23.7656 14.1522C23.3981 14 22.9316 14 21.9997 14C21.0679 14 20.6019 14 20.2344 14.1522C19.7443 14.3552 19.3552 14.7448 19.1522 15.2349C19 15.6024 19 16.0681 19 17M12 15H16M12 12H16" stroke="white" stroke-width="2" stroke-linecap="round" stroke-linejoin="round"/>
</g>
<rect x="0.5" y="0.5" width="33" height="33" rx="3.5" stroke="#DEDFE5"/>
<defs>
<clipPath id="clip0_589_3383">
<rect x="1" y="1" width="32" height="32" rx="3" fill="white"/>
</clipPath>
</defs>
</svg>
