<svg width="34" height="34" viewBox="0 0 34 34" fill="none" xmlns="http://www.w3.org/2000/svg">
<g clip-path="url(#clip0_589_3386)">
<rect x="1" y="1" width="32" height="32" rx="3" fill="#1E1E1E"/>
<rect x="1" y="1" width="32" height="32" fill="#0BB83C"/>
<path d="M9 11L15.1076 15.6123L15.1097 15.614C15.7878 16.1113 16.1271 16.3601 16.4988 16.4562C16.8272 16.5412 17.1725 16.5412 17.501 16.4562C17.8729 16.36 18.2132 16.1105 18.8926 15.6123C18.8926 15.6123 22.8101 12.6059 25 11M8 20.8002V13.2002C8 12.0801 8 11.5196 8.21799 11.0918C8.40973 10.7155 8.71547 10.4097 9.0918 10.218C9.51962 10 10.0801 10 11.2002 10H22.8002C23.9203 10 24.4796 10 24.9074 10.218C25.2837 10.4097 25.5905 10.7155 25.7822 11.0918C26 11.5192 26 12.079 26 13.1969V20.8036C26 21.9215 26 22.4805 25.7822 22.9079C25.5905 23.2842 25.2837 23.5905 24.9074 23.7822C24.48 24 23.921 24 22.8031 24H11.1969C10.079 24 9.5192 24 9.0918 23.7822C8.71547 23.5905 8.40973 23.2842 8.21799 22.9079C8 22.4801 8 21.9203 8 20.8002Z" stroke="white" stroke-width="2" stroke-linecap="round" stroke-linejoin="round"/>
</g>
<rect x="0.5" y="0.5" width="33" height="33" rx="3.5" stroke="#DEDFE5"/>
<defs>
<clipPath id="clip0_589_3386">
<rect x="1" y="1" width="32" height="32" rx="3" fill="white"/>
</clipPath>
</defs>
</svg>
