<svg width="20" height="20" viewBox="0 0 20 20" fill="none" xmlns="http://www.w3.org/2000/svg">
<path d="M6.12132 13.8787C5.57843 13.3358 4.82843 13 4 13C2.34315 13 1 14.3431 1 16C1 17.6569 2.34315 19 4 19C5.65685 19 7 17.6569 7 16C7 15.1716 6.66421 14.4216 6.12132 13.8787ZM6.12132 13.8787L13.8787 6.12132M13.8787 6.12132C14.4216 6.66421 15.1716 7 16 7C17.6569 7 19 5.65685 19 4C19 2.34315 17.6569 1 16 1C14.3431 1 13 2.34315 13 4C13 4.82843 13.3358 5.57843 13.8787 6.12132ZM13.8787 6.12132L13.8828 6.11719" stroke="#DA291C" stroke-width="2" stroke-linecap="round" stroke-linejoin="round"/>
</svg>
