<svg width="17" height="18" viewBox="0 0 17 18" fill="none" xmlns="http://www.w3.org/2000/svg">
<path d="M6.12207 6.56135C6.2644 6.12277 6.52513 5.73247 6.87565 5.4329C7.22618 5.13334 7.65316 4.93648 8.10856 4.86423C8.56396 4.79198 9.03018 4.847 9.45622 5.02336C9.88225 5.19971 10.2512 5.49062 10.5223 5.86361C10.7934 6.23659 10.9557 6.67713 10.992 7.1368C11.0282 7.59647 10.9365 8.05732 10.7272 8.46818C10.5179 8.87904 10.1995 9.22374 9.80634 9.46468C9.4132 9.70562 8.96109 9.83314 8.5 9.83314V10.6669M8.5 16.5C4.35786 16.5 1 13.1421 1 9C1 4.85786 4.35786 1.5 8.5 1.5C12.6421 1.5 16 4.85786 16 9C16 13.1421 12.6421 16.5 8.5 16.5ZM8.5415 13.1667V13.25L8.4585 13.2502V13.1667H8.5415Z" stroke="#17283D" stroke-width="1.5" stroke-linecap="round" stroke-linejoin="round"/>
</svg>
