<svg width="21" height="20" viewBox="0 0 21 20" fill="none" xmlns="http://www.w3.org/2000/svg">
<path d="M12.1667 13.3333H16.3333V17.5M8.83333 6.66667H4.66667V2.5M16.6813 7.50284C16.2141 6.34638 15.4318 5.3442 14.4233 4.61019C13.4149 3.87618 12.221 3.4396 10.9769 3.35042C9.73281 3.26125 8.48839 3.52284 7.38558 4.10551C6.28277 4.68819 5.36569 5.56878 4.73828 6.64677M4.31836 12.4976C4.7856 13.654 5.56788 14.6562 6.57631 15.3902C7.58474 16.1242 8.7799 16.5602 10.024 16.6494C11.2681 16.7386 12.5115 16.477 13.6143 15.8944C14.7171 15.3117 15.6335 14.4313 16.2609 13.3533" stroke="#DA291C" stroke-width="2" stroke-linecap="round" stroke-linejoin="round"/>
</svg>
