<svg width="15" height="15" viewBox="0 0 15 15" fill="none" xmlns="http://www.w3.org/2000/svg">
<path d="M11.0417 13.875C11.0417 11.919 9.45601 10.3333 7.5 10.3333C5.54399 10.3333 3.95833 11.919 3.95833 13.875M11.0417 13.875H11.6105C12.4024 13.875 12.7983 13.875 13.1011 13.7207C13.3676 13.5849 13.5849 13.3676 13.7207 13.1011C13.875 12.7983 13.875 12.4024 13.875 11.6105V3.38948C13.875 2.59762 13.875 2.2011 13.7207 1.89836C13.5849 1.63179 13.3676 1.41523 13.1011 1.27941C12.798 1.125 12.4019 1.125 11.6085 1.125H3.3918C2.5984 1.125 2.2014 1.125 1.89836 1.27941C1.63179 1.41523 1.41523 1.63179 1.27941 1.89836C1.125 2.2014 1.125 2.5984 1.125 3.3918V11.6085C1.125 12.4019 1.125 12.798 1.27941 13.1011C1.41523 13.3676 1.63179 13.5849 1.89836 13.7207C2.2011 13.875 2.59762 13.875 3.38948 13.875H3.95833M11.0417 13.875H3.95833M7.5 8.20833C6.32639 8.20833 5.375 7.25694 5.375 6.08333C5.375 4.90973 6.32639 3.95833 7.5 3.95833C8.67361 3.95833 9.625 4.90973 9.625 6.08333C9.625 7.25694 8.67361 8.20833 7.5 8.20833Z" stroke="#003057" stroke-width="1.6" stroke-linecap="round" stroke-linejoin="round"/>
</svg>
